<?xml version="1.0" encoding="utf-8"?>
<!-- Generator: Adobe Illustrator 22.1.0, SVG Export Plug-In . SVG Version: 6.00 Build 0)  -->
<svg version="1.1" id="Layer_1" xmlns="http://www.w3.org/2000/svg" xmlns:xlink="http://www.w3.org/1999/xlink" x="0px" y="0px"
	 viewBox="0 0 72 97.5" style="enable-background:new 0 0 72 97.5;" xml:space="preserve">
<style type="text/css">
	.st0{fill:#716453;}
</style>
<path class="st0" d="M72,44.1c0,0-17.3,9-23.4,11.7c1.1-2.6,5.3-15.9,6.5-20.7c1.2-4.8,2.9-15.7,3.2-18.7c0.3-3.1,0.9-8.1-0.5-12.3
	c-1.4-4.2-3.6-5.3-11-2.6c-7.4,2.6-13.6,7.2-16.6,9.1c-3,1.8-11.2,8.9-14,11.5c-2.8,2.7-7.8,9.6-8.5,10.5c-0.6,1-4.3,7.2-3.3,11.9
	c1,4.7,4.8,1.8,4.8,1.8c2.4-1.9,7.4-4.3,7.4-4.3l0.1-1c-2.1,0.2-2.8-0.8-2.6-4.1c0.1-3.3,3.9-10.8,7.5-15.2
	c3.6-4.5,8.4-9.5,16.5-13.8c8.1-4.4,10-0.3,10.7,2.5c0.7,2.8-0.4,13-0.7,15.5c-0.3,2.5-3,15.9-3.4,17.4c-0.3,1.3-3.7,13.1-4.9,17.1
	c0,0,0,0,0,0l0,0l0,0c0,0,0,0,0,0c-0.1,0.1-23,10.6-31.2,20c0,0-6.6,5.9-7.6,9.2c0,0-2.6,5.4,0.9,7.5c3.5,2.1,11.6-1.4,12.1-1.8
	c0.5-0.3,4.5-1.4,11.9-7.2c7.4-5.8,10.6-10.6,11.6-11.7c1-1.1,8-12.9,10-17.4L72,45.4V44.1z M36,69.4c-2.2,4.9-5.2,8.9-9,14.2
	c-3.8,5.3-9.5,7.4-13.2,7.4c-3.8,0.1-4.7-2.6-4-5.5c0.7-2.9,5.6-7.8,8.8-10.6c3.2-2.7,8.9-6.2,14-8.9c1.7-0.9,4-2,6.2-3.1l0,0
	C38.3,64.2,37.5,66,36,69.4z"/>
</svg>
