<?xml version="1.0" encoding="utf-8"?>
<!-- Generator: Adobe Illustrator 22.1.0, SVG Export Plug-In . SVG Version: 6.00 Build 0)  -->
<svg version="1.1" id="Layer_1" xmlns="http://www.w3.org/2000/svg" xmlns:xlink="http://www.w3.org/1999/xlink" x="0px" y="0px"
	 viewBox="0 0 2488 1091" style="enable-background:new 0 0 2488 1091;" xml:space="preserve">
<style type="text/css">
	.st0{fill:#004789;}
</style>
<path class="st0" d="M2124.2,545.7c-101.5-51.8-231.4-58.3-310.9-64.7c-130.2-8.7-312.8-15.6-492.1,0.8
	c-115.8,10-344.8,29.5-545.4,76c-127.1,27.5-231.3,52.2-316,73.6C288.6,674.7,136.1,773,27.1,912c-16.8,21.5-25.7,35-25.7,35
	c-4.4,7.5,2,16.8,10.6,15.3c285.5-50,552.5-88,569.7-90.4c0.6-0.1,1.2-0.2,1.8-0.3c44.1-9,448.1-54.7,487.8-57.4
	c40-2.8,288.7-20.7,457.8-12.5c65,3.2,330.2,19.2,398,49.6c61.7,27.6,147.4,85.2,51.5,237.3c35.1,7.6,72.8-2,107.3-50.1
	c25.6-35.8,34.4-53.6,58.1-98.1C2231,766.5,2271.1,620.6,2124.2,545.7z"/>
</svg>
