<?xml version="1.0" encoding="utf-8"?>
<!-- Generator: Adobe Illustrator 22.1.0, SVG Export Plug-In . SVG Version: 6.00 Build 0)  -->
<svg version="1.1" id="Layer_1" xmlns="http://www.w3.org/2000/svg" xmlns:xlink="http://www.w3.org/1999/xlink" x="0px" y="0px"
	 viewBox="0 0 2165 1091" style="enable-background:new 0 0 2165 1091;" xml:space="preserve">
<style type="text/css">
	.st0{fill:#004789;}
</style>
<path class="st0" d="M1756.4,1041c29.7-41.9,58.4-86.3,84.5-133c118.9-212.3,97.7-287.2-23.9-350.7
	c-121.5-63.6-278.5-70.2-374.2-77.9c-95.7-7.7-437-12.5-592.2,1c-139.3,12-569.6,78.1-656.4,91.5c-9.9,1.5-21,10.3-24,14.3
	C133.7,634.7,0,819.4,0,819.4c482.6-73,895.8-86.4,1100.9-78.3c78.2,3.1,397.5,23.1,479,59.7c74.1,33.2,177,102.3,62.7,284.6
	C1658.5,1090.6,1703.5,1106.2,1756.4,1041z"/>
</svg>
