<?xml version="1.0" encoding="utf-8"?>
<!-- Generator: Adobe Illustrator 22.1.0, SVG Export Plug-In . SVG Version: 6.00 Build 0)  -->
<svg version="1.1" id="Layer_1" xmlns="http://www.w3.org/2000/svg" xmlns:xlink="http://www.w3.org/1999/xlink" x="0px" y="0px"
	 viewBox="0 0 6783 1702" style="enable-background:new 0 0 6783 1702;" xml:space="preserve">
<style type="text/css">
	.st0{fill-rule:evenodd;clip-rule:evenodd;fill:#2AA5D1;}
</style>
<path class="st0" d="M5730.3,885.2L5730.3,885.2c-24.9-34.4-97.1-87.8-155.7-117.1v0c-223.3-111.6-459.4-195.5-703.2-249
	c-207.1-45.4-456.4-89.2-723-111.9c-309-24.5-666.9-10.9-862.7,14c-73.2,9.3-529.3,80.3-719.8,324.7
	c-174.6,224,60.1,295.6,100.4,306c7.3,1.9,14.5,3.8,21.7,5.8c367.7,101.2,522.6,197.4,522.6,197.4c19.3-32.5,11.4-64.5-5.8-91.6
	c-48.1-75.9-12.1-143.9,129.7-251.8c169.3-128.7,687.3-249.5,1055.8-255.1c201.8-3.1,424.4,4.5,674.3,47.9
	c201.3,35,420.4,93.3,660.6,188.1C5729.8,894.3,5733.6,888.7,5730.3,885.2z"/>
</svg>
