<?xml version="1.0" encoding="utf-8"?>
<!-- Generator: Adobe Illustrator 22.1.0, SVG Export Plug-In . SVG Version: 6.00 Build 0)  -->
<svg version="1.1" id="Layer_1" xmlns="http://www.w3.org/2000/svg" xmlns:xlink="http://www.w3.org/1999/xlink" x="0px" y="0px"
	 viewBox="0 0 4867 1091" style="enable-background:new 0 0 4867 1091;" xml:space="preserve">
<style type="text/css">
	.st0{fill:#FFFFFF;}
</style>
<path class="st0" d="M3235.8,773.3c-13.9,42.5-34.2,87.9-58,135.4c-23.7,44.5-32.5,62.3-58.1,98.1c-34.5,48.1-72.2,57.7-107.3,50.1
	c95.9-152.1,10.2-209.7-51.5-237.3c-67.8-30.4-333-46.4-398-49.6c-169.1-8.2-417.8,9.7-457.8,12.5c-39.7,2.7-443.7,48.4-487.8,57.4
	c-0.6,0.1-1.2,0.2-1.8,0.3c-17.2,2.4-1318,200.7-1603.5,250.7c-8.6,1.5-15-7.8-10.6-15.3c0,0,8.9-13.5,25.7-35H0v43v7.5h4024V773.3
	H3235.8z"/>
</svg>
