<?xml version="1.0" encoding="utf-8"?>
<!-- Generator: Adobe Illustrator 22.1.0, SVG Export Plug-In . SVG Version: 6.00 Build 0)  -->
<svg version="1.1" id="Layer_1" xmlns="http://www.w3.org/2000/svg" xmlns:xlink="http://www.w3.org/1999/xlink" x="0px" y="0px"
	 viewBox="0 0 6783 1702" style="enable-background:new 0 0 6783 1702;" xml:space="preserve">
<style type="text/css">
	.st0{fill:#2AA5D1;}
</style>
<path class="st0" d="M6385.9,1061.6c-427.4-250.3-902-366.1-1114.9-438.4c-212.9-72.4-887.1-186.2-1132.2-213.9
	c-245-27.6-782.7,8.5-855.6,15.8c-72.8,7.2-524.8,80.7-713.2,323.4c-188.4,242.6,105.9,304.4,105.9,304.4
	c188.7,39,510.1,187.3,510.1,187.3l25.4,11.8c23.6-41.9,5.8-72.7-3-85.4c-53.4-77.6-19.6-145.7,124.4-255.6
	c167.7-127.9,681.1-248.7,1046.6-255.1c365.5-6.3,800,22.2,1342.9,238.3c542.9,216,420.7,476.3,315,624.2l667.5,183.7
	C6853,1465.4,6813.3,1312,6385.9,1061.6z"/>
</svg>
