<?xml version="1.0" encoding="utf-8"?>
<!-- Generator: Adobe Illustrator 22.1.0, SVG Export Plug-In . SVG Version: 6.00 Build 0)  -->
<svg version="1.1" id="Layer_1" xmlns="http://www.w3.org/2000/svg" xmlns:xlink="http://www.w3.org/1999/xlink" x="0px" y="0px"
	 viewBox="0 0 4867 1091" style="enable-background:new 0 0 4867 1091;" xml:space="preserve">
<style type="text/css">
	.st0{fill:#004789;}
</style>
<path class="st0" d="M2355,450.1C1320.6,546.8,144,888.3,27.1,1040.5c-16.8,21.5-25.7,35-25.7,35c-4.4,7.5,2,16.8,10.6,15.3
	c285.5-50,1586.3-248.3,1603.5-250.7c0.6-0.1,1.2-0.2,1.8-0.3c44.1-9,448.1-54.7,487.8-57.4c40-2.8,288.7-20.7,457.8-12.5
	c65,3.2,330.2,19.2,398,49.6c61.7,27.6,147.4,85.2,51.5,237.3c35.1,7.6,72.8-2,107.3-50.1c25.6-35.8,34.4-53.6,58.1-98.1
	c87-173.9,127.1-319.8-19.8-394.7C3158,514,2918.9,390.4,2355,450.1z"/>
</svg>
