<?xml version="1.0" encoding="utf-8"?>
<!-- Generator: Adobe Illustrator 22.1.0, SVG Export Plug-In . SVG Version: 6.00 Build 0)  -->
<svg version="1.1" id="Layer_1" xmlns="http://www.w3.org/2000/svg" xmlns:xlink="http://www.w3.org/1999/xlink" x="0px" y="0px"
	 viewBox="0 0 248.2 142.7" style="enable-background:new 0 0 248.2 142.7;" xml:space="preserve">
<style type="text/css">
	.st0{fill:#064887;}
</style>
<g>
	<path class="st0" d="M67.3,115.1c-5.2,6.5-13.2,10.7-22.1,10.7c-15.6,0-28.2-12.6-28.2-28.2c0-15.6,12.6-28.2,28.2-28.2
		c8.5,0,16.1,3.7,21.2,9.7L77,65.5c-8.2-8.1-19.4-13.1-31.8-13.1C20.2,52.3,0,72.6,0,97.5c0,25,20.2,45.2,45.2,45.2
		c12.5,0,23.8-5.1,31.9-13.2L67.3,115.1z"/>
	<rect x="86.2" y="54.2" class="st0" width="19.1" height="87.6"/>
	<rect x="190.2" y="54.6" class="st0" width="19.1" height="87.6"/>
	<path class="st0" d="M157.5,142.6c-16.4,0-20.3-14-20.7-21.9h-0.1v-50h-16.8v-16h16.8v-17l17-10.3l-0.5,13v14.3h17.2v16h-17.2v44.4
		c-0.1,0.6-0.2,1.3-0.2,1.9c0,0.6,0.1,1.3,0.2,1.9v1c0.7,3.9,3.3,7.1,6.8,8.6c1.4,0.6,2.9,0.9,4.5,0.9c3.6,0,6.8-1.6,8.9-4.2
		c0.5-0.6,0.9-1.2,1.2-1.9c0,0,0,0,0,0C174.6,123.4,175,142.6,157.5,142.6z"/>
	<path class="st0" d="M153.2,115.1v3.8c-0.1-0.6-0.2-1.3-0.2-1.9C153.1,116.4,153.1,115.7,153.2,115.1z"/>
	<path class="st0" d="M150.8,0C118.5,0,90,16.5,73.3,41.5h27c13-12.8,30.9-20.6,50.6-20.6s37.6,7.9,50.6,20.6h27
		C211.7,16.5,183.2,0,150.8,0z"/>
	<g>
		<path class="st0" d="M234.7,39.9v-9.7h4.7c0.9,0,1.5,0.1,2,0.2c0.5,0.2,0.8,0.5,1.1,0.9c0.3,0.4,0.4,1,0.4,1.6
			c0,0.5-0.1,1-0.3,1.4c-0.2,0.4-0.5,0.7-0.9,1c-0.2,0.2-0.6,0.3-1,0.4c0.3,0.1,0.6,0.2,0.7,0.4c0.1,0.1,0.3,0.2,0.4,0.5
			c0.2,0.3,0.3,0.5,0.4,0.6l1.4,2.8h-3.2l-1.5-3c-0.2-0.4-0.4-0.6-0.5-0.7c-0.2-0.1-0.4-0.2-0.7-0.2h-0.2v3.9H234.7z M237.5,34.2
			h1.2c0.1,0,0.4,0,0.7-0.1c0.2,0,0.3-0.1,0.5-0.3c0.1-0.2,0.2-0.4,0.2-0.6c0-0.3-0.1-0.6-0.3-0.7c-0.2-0.2-0.5-0.3-1-0.3h-1.2V34.2
			z"/>
	</g>
	<path class="st0" d="M238.4,25.4c-5.4,0-9.8,4.4-9.8,9.8c0,5.4,4.4,9.8,9.8,9.8c5.4,0,9.8-4.4,9.8-9.8
		C248.2,29.8,243.8,25.4,238.4,25.4z M238.4,43.2c-4.4,0-8-3.6-8-8c0-4.4,3.6-8,8-8c4.4,0,8,3.6,8,8
		C246.4,39.6,242.8,43.2,238.4,43.2z"/>
</g>
<path class="st0" d="M153.2,115.1v3.8c-0.1-0.6-0.2-1.3-0.2-1.9C153.1,116.4,153.1,115.7,153.2,115.1z"/>
</svg>
