<?xml version="1.0" encoding="utf-8"?>
<!-- Generator: Adobe Illustrator 22.1.0, SVG Export Plug-In . SVG Version: 6.00 Build 0)  -->
<svg version="1.1" id="Layer_1" xmlns="http://www.w3.org/2000/svg" xmlns:xlink="http://www.w3.org/1999/xlink" x="0px" y="0px"
	 viewBox="0 0 167 175.7" style="enable-background:new 0 0 167 175.7;" xml:space="preserve">
<style type="text/css">
	.st0{fill-rule:evenodd;clip-rule:evenodd;fill:#154987;}
	.st1{fill-rule:evenodd;clip-rule:evenodd;fill:#FFFFFF;}
</style>
<g>
	<path class="st0" d="M149.6,45.6c-0.4,2.5-2.5,3.4-1.9,6.1c3.4,4,6.9,5.7,6.9,12.5c1.5-1.7,8.2-2.7,10,2.3
		c4.2,12.3-14.8,21.8-28.2,27.6c-14.2,6.1-28,11.3-35.6,14.8c-1.1,5.6-3.6,19.9-12.6,20.5c-5,0.4-5.6-8.6-2.7-14.4
		c-11.9,3.8-19.9,11.1-21.3,14.8c-10.7,1.1-12.5-0.4-12.5-0.4c8.2-12.3,28.2-19.7,38.3-23.4c0,0,5-7.3,7.9-10.9l0.6-3.4
		c-1.1,3.1-5.9,7.3-9.2,2.1c-0.8,2.1-1.9,6.7-5.6,6.9c-1.5,0-2.5-1.3-3.3-2.5c-0.8,2.1-3.1,7.3-7.5,6.7c-3.8-0.6-5-7.1-4.4-10.7
		c0,0.2-1.1,1.9-2.1,2.5c-0.2,12.8-7.1,19.7-14.4,14.9l-5.9,5.4c-1,0.2-1.7-0.2-2.1-0.8l5.9-8.6c-2.1-10.9,4.2-22.4,12.1-20.1
		c2.5,0.8,3.4,2.9,4,5.2c1-0.4,1.9-1.3,2.7-2.1c0.2-3.6,5.7-14.2,12.1-10c0.2,0,3.8-17.8,3.8-17.8s3.4-1.7,4.8-1.5
		c-1.3,7.1-5.6,26.6-5,33.1c0,1.3,2.9,0.2,3.6-4.8c-0.4-18.2,10.9-21.6,13.4-18l0.6-2.3c0,0,2.7-1.7,4.6-1.7
		c-0.4,3.8-1.5,11.7-2.5,17.6l4-6.5c0.4-14,8.8-19.5,12.8-16.5c3.8,2.9-1.5,14.2-7.5,14.9c-0.2,6.9,7.1,3.8,10-3.8
		c2.3-6.5,2.9-8.6,3.6-13.4c-1-1.9-1.1-6.1,1-7.3c2.5-1.5,1.5,2.9,3.1,2.7c2.3,0,5.2-0.8,6.5,0.6c2.5,2.7-1.5,7.9-2.3,10.7
		c-0.8,2.7-0.6,5.2,0.8,5c2.7-0.4,7.5-14.6,8.4-19.3C142.5,42.1,150.2,40.8,149.6,45.6L149.6,45.6z M97.1,103.4c0,0,0.6-2.5,0.6-3.4
		c-0.4,0.6-1.7,2.9-2.7,4.2C95.8,104,97.1,103.4,97.1,103.4L97.1,103.4z M146.5,55.6c-1.1,4.4-5.7,24.3-12.8,22.2
		c-7.3-2.1-1.7-14.4-1.1-16.9c-0.6,0.2-1.5,0-2.3-0.2c-1.5,7.1-5.7,25.5-15.5,25.7c-3.1,0.2-4.6-2.3-5.4-3.6c-2.1,2.9-4,6.5-6.1,9.4
		c-0.6,2.9-1.1,6.9-1.5,9.6c39.5-14.2,53.1-19.5,57.9-27c1.3-1.7,3.3-6.1,0.6-8c-1.9-1.3-4.8,0.4-5.6,1.3c-2.5,2.5-5,5-8.6,4.4
		c-2.7-0.4-3.8-3.4-2.1-5.2c1.3-1.1,2.7,0.6,3.8,0C149.8,66.1,151,60.7,146.5,55.6L146.5,55.6z M118,66.1c-1.3-1-4.4,4.2-4.2,8
		C117.2,73,119.1,66.9,118,66.1L118,66.1z M98.3,74.3c-5.7,0.8-7.1,16.3-3.1,15.5c2.1-0.4,3.3-3.4,4-5.7c0.8-2.3,0.8-5,1-6.1
		C100.6,75.7,99.4,74.1,98.3,74.3L98.3,74.3z M78.9,83.5c-5.9-0.6-7.7,14.8-4,14.9c2.1,0,3.6-2.1,4.4-5.2c0.2-0.6,0.8-6.5,1-7.1
		C80.3,85.4,79.9,83.7,78.9,83.5L78.9,83.5z M58,92.5c0.8,1.5,4.8,1.9,4.4,1.1C62.6,89.5,57.8,88.9,58,92.5L58,92.5z M55.7,95.2
		c-2.5,3.4-2.3,11.5,0.8,12.1c3.6,0.6,6.3-5.7,5.9-9.2C60.5,98.1,57.1,97.7,55.7,95.2L55.7,95.2z M96.2,110.3c0,0-2.3,1.1-5,2.1
		c-2.1,3.3-3.3,10.5-0.8,9.4C93.5,120.5,94.6,117.1,96.2,110.3L96.2,110.3z"/>
	<path class="st0" d="M43.3,114.4c-7.7,14-20.1,10.5-24.1,10.5c-5.4,8.8-14.8,12.1-16.5,10.9c-2.5-1.5,1.3-12.1,13-13.8
		c3.8-4.6-1.1-32.4,14.9-40.6c0.4,0,1,0.2,0.6,0.8c-8.6,7.7-5.4,19.5-7.5,30.3c-1.1,5-2.1,8-2.7,9.4c2.5,0,3.6,0.4,6.5-0.2
		c7.3-1.3,10.5-8.6,12.1-15.5c2.1-9.2,1.9-21.1-5.2-25.1c-13.2-7.5-36.4,13-29.1,21.8c1.5,1.7,8.6,0.6,11.9-10c0.6,1,0.6,2.1,0,4
		c-4,11.9-11.1,12.8-14.2,11.1c-3.3-1.5-3.4-6.7-2.7-9.8c3.1-16.1,29.5-29.9,41.6-18.2C50.2,88.3,48.7,104.8,43.3,114.4L43.3,114.4z
		 M8,130.1c2.1,0.6,5-2.3,6.3-4.6C11.1,126.1,8.2,127.6,8,130.1L8,130.1z"/>
	<path class="st0" d="M95,15.7C95,7.1,102.1,0,110.7,0c8.8,0,15.9,7.1,15.9,15.7c0,8.8-7.1,15.9-15.9,15.9
		C102.1,31.6,95,24.5,95,15.7L95,15.7z"/>
	<path class="st0" d="M35.2,125.9l-8.8,16.7c-0.2,0.2,0,0.6,0.2,0.8c0.4,0.2,0.8,0,0.8-0.2l9-16.7c0-0.2,0-0.6-0.4-0.8
		C35.8,125.5,35.4,125.7,35.2,125.9L35.2,125.9z"/>
	<path class="st0" d="M55,131.8L48.7,146c0,0.2,0,0.6,0.4,0.8c0.2,0,0.6,0,0.8-0.4l6.3-14.2c0-0.2,0-0.6-0.4-0.6
		C55.5,131.4,55.2,131.6,55,131.8L55,131.8z"/>
	<path class="st0" d="M78,122.8l-2.5,7.3c0,0.4,0.2,0.8,0.4,0.8c0.4,0.2,0.8,0,0.8-0.4l2.3-7.3c0.2-0.4,0-0.8-0.4-0.8
		C78.3,122.2,78,122.4,78,122.8L78,122.8z"/>
	<path class="st0" d="M73.9,135.6l-12.5,39.5c-0.2,0.2,0,0.6,0.2,0.6c0.4,0.2,0.8,0,0.8-0.4l12.5-39.5c0.2-0.2,0-0.6-0.2-0.6
		C74.3,135.1,73.9,135.3,73.9,135.6L73.9,135.6z"/>
	<path class="st0" d="M90.8,131l-3.1,14.6c-0.2,0.2,0,0.6,0.4,0.6c0.4,0.2,0.6,0,0.8-0.4l3.1-14.6c0-0.2-0.2-0.6-0.6-0.6
		C91.2,130.7,90.8,130.8,90.8,131L90.8,131z"/>
	<path class="st0" d="M76.8,50.2l-15.7,28c0,0.4,0,0.8,0.2,0.8c0.4,0.2,0.8,0.2,1-0.2l15.7-28c0-0.4,0-0.8-0.4-0.8
		C77.4,49.8,77,49.8,76.8,50.2L76.8,50.2z"/>
	<path class="st0" d="M120.7,31.2l-5.2,24.5c0,0.4,0.2,0.6,0.4,0.8c0.4,0,0.8-0.2,0.8-0.6l5.4-24.3c0-0.4-0.2-0.8-0.6-0.8
		C121.1,30.8,120.9,31,120.7,31.2L120.7,31.2z"/>
	<path class="st0" d="M111.3,36.6l-5.6,23.8c-0.2,0.2,0.2,0.6,0.4,0.6c0.4,0.2,0.8,0,0.8-0.4l5.6-23.6c0.2-0.4,0-0.8-0.4-0.8
		C111.7,36,111.5,36.2,111.3,36.6L111.3,36.6z"/>
	<path class="st0" d="M105.5,36l-9.4,28.9c-0.2,0.4,0,0.8,0.4,0.8c0.4,0.2,0.8,0,0.8-0.4l9.4-28.9c0.2-0.4,0-0.8-0.4-0.8
		C105.9,35.4,105.7,35.6,105.5,36L105.5,36z"/>
	<path class="st0" d="M92.3,22.8L80.1,44.3c-0.2,0.2,0,0.6,0.2,0.8c0.4,0.2,0.8,0,1-0.2l12.1-21.5c0.2-0.2,0.2-0.6-0.2-0.8
		C92.9,22.4,92.5,22.6,92.3,22.8L92.3,22.8z"/>
	<path class="st0" d="M99.4,33l-9,19.2c0,0.2,0,0.6,0.4,0.8c0.4,0.2,0.8,0,0.8-0.2l9-19.3c0.2-0.2,0-0.6-0.4-0.8
		C100,32.4,99.6,32.6,99.4,33L99.4,33z"/>
	<path class="st0" d="M104,120.3l-2.9,15.7c-0.2,0.2,0,0.6,0.4,0.6c0.4,0.2,0.6,0,0.6-0.4l3.1-15.7c0-0.4-0.2-0.6-0.6-0.8
		C104.4,119.7,104,119.9,104,120.3L104,120.3z"/>
	<path class="st0" d="M163.6,78.7h-0.8v1.9h-0.6v-1.9h-0.6v-0.4h1.9V78.7L163.6,78.7z M167,80.7h-0.6v-1.9l0,0l-0.8,1.9h-0.4
		l-0.8-1.9l0,0v1.9H164v-2.3h1l0.6,1.5l0,0l0.6-1.5h1V80.7L167,80.7z"/>
	<path class="st1" d="M105.7,14.4c1.9-6.7-1.5-10.9-2.1-11.5c-4.4,2.5-7.5,7.3-7.5,12.8c0,2.5,0.6,5,1.7,7.1
		C98.8,22.4,103.6,20.7,105.7,14.4L105.7,14.4z"/>
	<path class="st1" d="M115.9,17.4c-2.1,6.5,1,10.5,1.7,11.3c4.6-2.5,7.9-7.3,7.9-13c0-2.3-0.6-4.6-1.7-6.7
		C123.2,9.2,117.8,10.9,115.9,17.4L115.9,17.4z"/>
	<path class="st1" d="M114.7,17.2c2.1-7.3,7.7-9.4,8.2-9.6c-2.7-4-7.1-6.5-12.3-6.5c-1.9,0-3.8,0.4-5.6,1c0.6,0.6,3.8,5.4,1.5,12.6
		c-2.1,6.7-6.9,9-7.9,9.4c2.5,3.8,6.9,6.3,11.9,6.3c1.9,0,3.6-0.4,5.4-1C115.3,28.5,112.6,23.9,114.7,17.2L114.7,17.2z"/>
</g>
</svg>
