<?xml version="1.0" encoding="utf-8"?>
<!-- Generator: Adobe Illustrator 22.1.0, SVG Export Plug-In . SVG Version: 6.00 Build 0)  -->
<svg version="1.1" id="Layer_1" xmlns="http://www.w3.org/2000/svg" xmlns:xlink="http://www.w3.org/1999/xlink" x="0px" y="0px"
	 viewBox="0 0 251.7 336" style="enable-background:new 0 0 251.7 336;" xml:space="preserve">
<style type="text/css">
	.st0{fill:#004789;}
</style>
<g>
	<path class="st0" d="M167.9,133v31.8l-14.9-18C157.5,141.6,162.5,136.9,167.9,133 M114.9,165.8c-14.8-39-38.2-56.4-54-64.4V78
		l60.1,73.8C118.8,156.1,116.8,160.8,114.9,165.8z M198,209v-83.6c13.1,5.4,16.4,25,6.1,34.4c0,0,25.7-2.7,25.7-29.2
		c0-20.9-17-33-31.8-35.9V36.1c0.1-6.7,17.4-15,24.8-1.2c12.6-16.5-5.6-49.2-39.9-27.9c-34.3-21.3-52.5,11.4-39.9,27.9
		c7.4-13.8,24.7-5.5,24.8,1.2v65.8c-9,4.7-20.3,12.4-31,25.3L61,35.3c1.4-6.6,17.6-13.6,24.7-0.4C98.4,18.4,80.2-14.3,45.8,7
		C11.5-14.3-6.7,18.4,6,34.9c7.4-13.8,24.7-5.5,24.8,1.2v58.8C16.2,98.1,0,110.2,0,130.6c0,26.5,25.7,29.2,25.7,29.2
		c-10-9.2-7.1-28,5.1-34V209c-0.1,6.7-17.4,15-24.8,1.2c-12.7,16.5,5.6,49.2,39.9,27.9c34.3,21.3,52.5-11.4,39.9-27.9
		C78.3,224,61,215.7,60.9,209v-76.7c21.8,14.8,37,44.3,38.8,61.4v96.9c0,15.7-17.4,27-24.8,13.2c-12.7,16.5,5.5,46,39.9,24.7
		c34.3,21.3,52.5-8.2,39.9-24.7c-7.4,13.8-24.8,1.2-24.8-13.2v-95.5c0.4-6.4,2.9-14.8,7.1-23.6l30.8,37.9
		c-0.7,6.7-17.5,14.4-24.8,0.9c-12.7,16.5,5.6,49.2,39.9,27.9c34.3,21.3,52.5-11.4,39.9-27.9C215.4,224,198.1,215.7,198,209z"/>
	<path class="st0" d="M251.7,212.3h-1.6V206h0l-2.3,6.3h-1.6L244,206h0v6.3h-1.6v-7.9h2.8l1.8,5.2h0.1l1.9-5.2h2.8 M241,205.8h-2.4
		v6.5H237v-6.5h-2.4v-1.4h6.4L241,205.8L241,205.8z"/>
</g>
</svg>
