<?xml version="1.0" encoding="utf-8"?>
<!-- Generator: Adobe Illustrator 22.1.0, SVG Export Plug-In . SVG Version: 6.00 Build 0)  -->
<svg version="1.1" id="Layer_1" xmlns="http://www.w3.org/2000/svg" xmlns:xlink="http://www.w3.org/1999/xlink" x="0px" y="0px"
	 viewBox="0 0 133.2 63" style="enable-background:new 0 0 133.2 63;" xml:space="preserve">
<style type="text/css">
	.st0{fill:#154987;}
</style>
<g>
	<g>
		<path class="st0" d="M121.3,2.1c-1.3-1.3-3.1-2.1-5-2.1H85.7l17.6,29.3l1.6,0.2l0.9,1.3v1.3l1.1,0.2l1,1.4l0,1.2l1.1,0.2
			c0,0,1.1,1.2,1.1,1.3c0-0.1,0,2.7,0,2.7s2.5,2.3,4.7,3.1c1.5,0.6,1.7,3.1,2.6,4.4c1.2,1.9,2.8,2.7,2.5,3.7c-0.8,2.9-3.7,7.7-6.5,8
			c0,0-6.8,0-10.8,0l0,4.6h13.5c3.9,0,7.1-3.2,7.1-7.1V7.1C123.3,5.2,122.6,3.4,121.3,2.1z"/>
		<path class="st0" d="M75.3,0H7.1c-1.9,0-3.7,0.7-5,2.1C0.7,3.4,0,5.2,0,7.1v48.8c0,1.9,0.7,3.7,2.1,5c1.3,1.3,3.1,2.1,5,2.1h44.3
			c-1.1-1.9-2.4-4-2.7-4.6h-5.3c0-13.1,4.5-20.4,9.7-21.8c0.7-0.1,0.4-3.7-0.5-4.8c0,0-2.5,0.1-3.1-0.1c-0.7-0.2-0.2-0.9-0.2-0.9
			l2.5-5.4L51.4,24h-9.1c-0.1,0,7.6-5.3,7.6-5.3c0.4-13.9,14.6-15,23.3-9.2c5.1,3.4,5.5,10.1,5.1,14.8c-0.1,0.3-1.3,0.1-1.3,0.1
			s-0.9,5.1,1.4,5.1l10,0c4.1-0.1,8,2.6,8,2.6l1-3.5L75.3,0z M14.7,53c-2.7,0-4.9-2.2-4.9-4.9c0-2.7,2.2-4.9,4.9-4.9
			c2.7,0,4.9,2.2,4.9,4.9C19.5,50.8,17.4,53,14.7,53z"/>
	</g>
	<path class="st0" d="M130.5,62.4c-1.3,0-2.2-1-2.2-2.3c0-1.3,1-2.3,2.2-2.3c1.2,0,2.2,1,2.2,2.3C132.7,61.4,131.8,62.4,130.5,62.4z
		 M130.5,62.8c1.5,0,2.7-1.2,2.7-2.7c0-1.5-1.2-2.7-2.7-2.7c-1.5,0-2.7,1.2-2.7,2.7C127.8,61.6,129,62.8,130.5,62.8z M130.9,60.2
		c0.5,0,0.9-0.2,0.9-0.8c0-0.2-0.1-0.5-0.3-0.6c-0.2-0.2-0.5-0.2-0.7-0.2h-1.3v3h0.4v-1.4h0.6l0.9,1.4h0.5L130.9,60.2z M129.9,59.9
		v-1h0.8c0.4,0,0.7,0,0.7,0.5c0,0.6-0.6,0.5-1,0.5H129.9z"/>
</g>
</svg>
