<?xml version="1.0" encoding="utf-8"?>
<!-- Generator: Adobe Illustrator 22.1.0, SVG Export Plug-In . SVG Version: 6.00 Build 0)  -->
<svg version="1.1" id="Layer_1" xmlns="http://www.w3.org/2000/svg" xmlns:xlink="http://www.w3.org/1999/xlink" x="0px" y="0px"
	 viewBox="0 0 326.6 116.4" style="enable-background:new 0 0 326.6 116.4;" xml:space="preserve">
<style type="text/css">
	.st0{fill:#004789;}
</style>
<path class="st0" d="M36,116.3c-9.7-0.4-17.7-3-23.9-8c-1.2-0.9-4-3.8-5-5c-2.5-3.2-4.2-6.3-5.4-9.7C-1.8,83.1,0,69.3,6.9,54.1
	c5.9-13,15-25.9,30.9-43.8C40.2,7.7,47.2,0,47.2,0c0,0-0.4,0.7-0.8,1.5c-4.1,6.9-7.7,15.1-9.6,22.1c-3.1,11.3-2.7,21,1.1,28.6
	c2.6,5.2,7.1,9.7,12.2,12.2c8.9,4.4,21.9,4.7,37.8,1.1c1.1-0.3,55.3-14.6,120.4-32C273.3,16.1,326.6,2,326.6,2
	c0,0-151.3,64.7-229.8,98.3C84.4,105.6,81,107,75.2,109C60.2,114.3,46.8,116.8,36,116.3z"/>
</svg>
