<?xml version="1.0" encoding="utf-8"?>
<!-- Generator: Adobe Illustrator 22.1.0, SVG Export Plug-In . SVG Version: 6.00 Build 0)  -->
<svg version="1.1" id="Layer_1" xmlns="http://www.w3.org/2000/svg" xmlns:xlink="http://www.w3.org/1999/xlink" x="0px" y="0px"
	 viewBox="0 0 365 121.7" style="enable-background:new 0 0 365 121.7;" xml:space="preserve">
<style type="text/css">
	.st0{fill:#004789;}
</style>
<g id="XMLID_1_">
	<polygon id="XMLID_3_" class="st0" points="357.4,53.1 365,45.6 365,22.8 342.2,0 266.1,0 243.3,22.8 243.3,53.2 243.3,98.9 
		266.1,121.7 342.2,121.7 365,98.9 365,76 357.4,68.4 319.4,68.4 319.4,76 289,76 289,45.6 319.4,45.6 319.4,53.1 	"/>
	<polygon id="XMLID_4_" class="st0" points="38,121.7 45.6,114.1 45.6,83.6 83.6,121.7 114.1,121.7 121.7,114.1 121.7,7.6 114.1,0 
		83.6,0 76,7.6 76,38 38,0 7.6,0 0,7.6 0,114.1 7.6,121.7 	"/>
	<polygon id="XMLID_5_" class="st0" points="243.3,7.6 235.7,0 205.3,0 197.7,7.6 197.7,22.8 182.5,38 167.3,22.8 167.3,7.6 
		159.7,0 129.3,0 121.7,7.6 121.7,53.2 159.7,91.3 159.7,114.1 167.3,121.7 197.7,121.7 205.3,114.1 205.3,91.3 243.3,53.2 
		243.3,22.8 	"/>
	<polygon id="XMLID_16_" class="st0" points="353.5,6.5 354.8,6.5 354.8,1.1 356.9,1.1 356.9,0 351.4,0 351.4,1.1 353.5,1.1 	"/>
	<polygon id="XMLID_17_" class="st0" points="359.2,1.3 361,6.5 362,6.5 363.8,1.3 363.8,6.5 365,6.5 365,0 363.1,0 361.5,4.6 
		359.8,0 358,0 358,6.5 359.2,6.5 	"/>
</g>
</svg>
