<?xml version="1.0" encoding="utf-8"?>
<!-- Generator: Adobe Illustrator 22.1.0, SVG Export Plug-In . SVG Version: 6.00 Build 0)  -->
<svg version="1.1" id="Layer_1" xmlns="http://www.w3.org/2000/svg" xmlns:xlink="http://www.w3.org/1999/xlink" x="0px" y="0px"
	 viewBox="0 0 450.5 503.7" style="enable-background:new 0 0 450.5 503.7;" xml:space="preserve">
<style type="text/css">
	.st0{fill:#004789;}
</style>
<g>
	<g>
		<path class="st0" d="M407,470.6c-13.4,11.7-27.2,22.7-41.7,33.1c-1.9-30.3-9-60.4-22.3-87.7c-20.3-42.2-55.1-75.6-93.2-101.8
			c-1.1,1.7-0.8,3.7-1,5.6c-0.6,31.3-2.7,62.6-0.9,93.9c0.3,11.1,0,22.7,3.9,33.3c4.8,15.3,16.7,27.1,28.8,37
			c-9.9,2.1-20,2.8-30,3.2c-9.9-0.1-19.8,0.9-29.7,0.1c-20.9-0.1-42-1.5-62.5-6.3c16.8-10.8,27.5-29,32.4-48.1
			c2.3-9.2,3.9-18.7,3.9-28.2c0.1-6.4,0.9-12.7,0.8-19c0.1-9.4,0.9-18.7,0.8-28c-0.1-18.3,0.4-36.7-0.6-55c-0.2-4.9,0-9.9-0.3-14.8
			c-0.9-4.1-1.5-8.5-3.2-12.4c-7.1-5.2-14-10.5-20.9-16c-25.4-20-48.9-42.3-71-65.9c-1.9-1.9-3.8-4-6-5.5c-0.3-0.4-0.8-1.3-1-1.7
			c7.1,21.1,11.5,43.1,12.2,65.4c0.2,15.6,0.4,31.3-1.6,46.8c-3.6,38.3-13.4,75.6-22.1,113c-3.9,17.5-5.4,35.3-7.3,53.1
			c-0.4,11.9-1.9,23.8-0.8,35.7c-18-11.8-35.9-24-51.9-38.5c-8.1-6.9-15.6-14.6-22-23c13-22,25.2-44.6,36.2-67.7
			c7.3-16.4,14-33.1,19.1-50.4c4.1-14.7,7.2-29.7,8.4-44.9c0.3-8.1,0.3-16.1,0-24.2C61.8,226.1,53.2,201,39,179.6
			c-8.3-13.2-18.6-25-29.8-35.8c14-21,32-39.5,52.8-53.8c3.9-2.4,7.8-4.8,11.8-7c16.2,44.7,44.1,84.8,79.5,116.4
			c8.3,7.1,16.8,14.1,26.1,19.8c-2.3-8.3-4.4-16.6-7.2-24.7c-1.5-5-3.5-9.9-4.9-15c-7.3-19.9-15.5-39.6-26.7-57.7
			c-10.9-18-24.9-34.9-43.6-45.1c4.9-11.3,12.6-21.1,20.7-30.2c18.4-19.4,40.3-36,65-46.5c-2.5,7.6-4.3,15.4-6.1,23.2
			c-4,19.9-3.9,40.6,0.8,60.4c3.3,16.4,8.8,32.2,13.8,48.1c5.5,16.1,11.3,32,17.9,47.7c6.6,15.6,13.4,31.2,22,45.8
			c15.6-28.9,29.3-58.8,42.4-88.9c8.6-20.5,17.3-41.3,20.9-63.3c1.8-8,2.3-16.1,3.3-24.2c0-7.7,0.1-15.4-0.1-23.1
			c-0.8-6-1.3-12.1-2.5-18.1c14.2,8,26.6,18.9,38.7,29.7c4.6,4.8,9.8,8.8,14.1,13.8c9.6,9.9,19.1,20.2,25.8,32.2
			c-9.5,2.3-18.8,6.1-26.1,12.7c-12.8,11.6-21.1,27-28.4,42.4c-8,17-15.4,34.3-22.8,51.6c-3.2,7.1-6,14.4-9.3,21.5
			c-9.1,21.7-18.7,43.2-28.8,64.6c26.4,21.3,54.8,40.4,77.7,65.8c2.4,2.5,4.4,5.4,7.2,7.5c-1-5.6-2.9-11.1-3.8-16.8
			c-5.1-24-8-48.4-8.6-72.9c-0.2-31.3,3.1-63.1,13.6-92.8c8-23.3,20.4-46.4,40.8-61.1c13,3.8,24.8,10.6,36,18
			c9.1,6.4,17.7,13.6,25.5,21.5c-15.9,6.6-30,17.8-39.7,32.1c-8.6,11.7-13.8,25.4-17.9,39.2c-2.8,12.8-5,25.9-5.2,39
			c0.2,9.7-1.1,19.4-0.2,29.2c0.4,15.7,3.1,31.3,6,46.7c4.2,19.2,10.1,38.1,18.8,55.8c6,12.1,13.9,23.6,24.6,32.1
			c5.5,3.8,11.4,7,17.5,9.7C436.9,443.8,422.1,457.4,407,470.6z"/>
	</g>
</g>
<g>
	<path class="st0" d="M117.8,46.5c18.4-19.4,40.3-36,65-46.5c-2.5,7.6-4.3,15.4-6.1,23.2c-4,19.9-3.9,40.6,0.8,60.4
		c3.3,16.4,8.8,32.2,13.8,48.1c5.5,16.1,11.3,32,17.9,47.7c6.6,15.6,13.4,31.2,22,45.8c15.6-28.9,29.3-58.8,42.4-88.9
		c8.6-20.5,17.3-41.3,20.9-63.3c1.8-8,2.3-16.1,3.3-24.2c0-7.7,0.1-15.4-0.1-23.1c-0.8-6-1.3-12.1-2.5-18.1
		c14.2,8,26.6,18.9,38.7,29.7c4.6,4.8,9.8,8.8,14.1,13.8c9.6,9.9,19.1,20.2,25.8,32.2c-9.5,2.3-18.8,6.1-26.1,12.7
		c-12.8,11.6-21.1,27-28.4,42.4c-8,17-15.4,34.3-22.8,51.6c-3.2,7.1-6,14.4-9.3,21.5c-9.1,21.7-18.7,43.2-28.8,64.6
		c26.4,21.3,54.8,40.4,77.7,65.8c2.4,2.5,4.4,5.4,7.2,7.5c-1-5.6-2.9-11.1-3.8-16.8c-5.1-24-8-48.4-8.6-72.9
		c-0.2-31.3,3.1-63.1,13.6-92.8c8-23.3,20.4-46.4,40.8-61.1c13,3.8,24.8,10.6,36,18c9.1,6.4,17.7,13.6,25.5,21.5
		c-15.9,6.6-30,17.8-39.7,32.1c-8.6,11.7-13.8,25.4-17.9,39.2c-2.8,12.8-5,25.9-5.2,39c0.2,9.7-1.1,19.4-0.2,29.2
		c0.4,15.7,3.1,31.3,6,46.7c4.2,19.2,10.1,38.1,18.8,55.8c6,12.1,13.9,23.6,24.6,32.1c5.5,3.8,11.4,7,17.5,9.7
		c-13.7,14.7-28.5,28.3-43.5,41.5c-13.4,11.7-27.2,22.7-41.7,33.1c-1.9-30.3-9-60.4-22.3-87.7c-20.3-42.2-55.1-75.6-93.2-101.8
		c-1.1,1.7-0.8,3.7-1,5.6c-0.6,31.3-2.7,62.6-0.9,93.9c0.3,11.1,0,22.7,3.9,33.3c4.8,15.3,16.7,27.1,28.8,37c-9.9,2.1-20,2.8-30,3.2
		c-9.9-0.1-19.8,0.9-29.7,0.1c-20.9-0.1-42-1.5-62.5-6.3c16.8-10.8,27.5-29,32.4-48.1c2.3-9.2,3.9-18.7,3.9-28.2
		c0.1-6.4,0.9-12.7,0.8-19c0.1-9.4,0.9-18.7,0.8-28c-0.1-18.3,0.4-36.7-0.6-55c-0.2-4.9,0-9.9-0.3-14.8c-0.9-4.1-1.5-8.5-3.2-12.4
		c-7.1-5.2-14-10.5-20.9-16c-25.4-20-48.9-42.3-71-65.9c-1.9-1.9-3.8-4-6-5.5c-0.3-0.4-0.8-1.3-1-1.7c7.1,21.1,11.5,43.1,12.2,65.4
		c0.2,15.6,0.4,31.3-1.6,46.8c-3.6,38.3-13.4,75.6-22.1,113c-3.9,17.5-5.4,35.3-7.3,53.1c-0.4,11.9-1.9,23.8-0.8,35.7
		c-18-11.8-35.9-24-51.9-38.5c-8.1-6.9-15.6-14.6-22-23c13-22,25.2-44.6,36.2-67.7c7.3-16.4,14-33.1,19.1-50.4
		c4.1-14.7,7.2-29.7,8.4-44.9c0.3-8.1,0.3-16.1,0-24.2C61.8,226.1,53.2,201,39,179.6c-8.3-13.2-18.6-25-29.8-35.8
		c14-21,32-39.5,52.8-53.8c3.9-2.4,7.8-4.8,11.8-7c16.2,44.7,44.1,84.8,79.5,116.4c8.3,7.1,16.8,14.1,26.1,19.8
		c-2.3-8.3-4.4-16.6-7.2-24.7c-1.5-5-3.5-9.9-4.9-15c-7.3-19.9-15.5-39.6-26.7-57.7c-10.9-18-24.9-34.9-43.6-45.1
		C102,65.4,109.6,55.6,117.8,46.5z"/>
</g>
</svg>
